<svg xmlns="http://www.w3.org/2000/svg" viewBox="0 0 1024 1024">
  <defs>
    <linearGradient id="surface" x1="0" y1="0" x2="1" y2="1">
      <stop offset="0" stop-color="#202024"/>
      <stop offset="1" stop-color="#0d0d0f"/>
    </linearGradient>
  </defs>
  <rect width="1024" height="1024" rx="224" fill="url(#surface)"/>
  <rect x="20" y="20" width="984" height="984" rx="208" fill="none" stroke="#ffffff" stroke-opacity=".1" stroke-width="3"/>
  <g fill="none" stroke="#f7f7f5" stroke-linecap="round" stroke-width="34">
    <path d="M512 228c-157 0-284 127-284 284s127 284 284 284c126 0 228-102 228-228S638 340 512 340c-95 0-172 77-172 172s77 172 172 172c64 0 116-52 116-116s-52-116-116-116c-33 0-60 27-60 60s27 60 60 60"/>
    <path d="M512 284c-126 0-228 102-228 228s102 228 228 228c95 0 172-77 172-172s-77-172-172-172c-64 0-116 52-116 116s52 116 116 116" opacity=".92"/>
  </g>
</svg>
